<?xml version="1.0" encoding="UTF-8"?>
<svg width="419px" height="421px" viewBox="0 0 419 421" version="1.1" xmlns="http://www.w3.org/2000/svg" xmlns:xlink="http://www.w3.org/1999/xlink">
    <!-- Generator: Sketch 59 (86127) - https://sketch.com -->
    <title>Group 3</title>
    <desc>Created with Sketch.</desc>
    <defs>
        <polygon id="path-1" points="0 0.0002 418.862 0.0002 418.862 420.875 0 420.875"></polygon>
    </defs>
    <g id="Page-1" stroke="none" stroke-width="1" fill="none" fill-rule="evenodd">
        <g id="Artboard" transform="translate(-156.000000, -72.000000)">
            <g id="Group-3" transform="translate(156.000000, 72.000000)">
                <mask id="mask-2" fill="white">
                    <use xlink:href="#path-1"></use>
                </mask>
                <g id="Clip-2"></g>
                <path d="M305.389,252.2112 C300.178,249.6042 274.559,236.9982 269.782,235.2582 C265.005,233.5192 261.531,232.6502 258.057,237.8652 C254.583,243.0822 244.597,254.8202 241.556,258.2992 C238.517,261.7752 235.477,262.2122 230.267,259.6032 C225.055,256.9942 208.264,251.4922 188.36,233.7372 C172.868,219.9202 162.41,202.8562 159.37,197.6382 C156.331,192.4222 159.047,189.6022 161.656,187.0032 C164,184.6682 166.867,180.9162 169.472,177.8742 C172.078,174.8312 172.946,172.6562 174.683,169.1812 C176.42,165.7022 175.552,162.6592 174.249,160.0512 C172.946,157.4432 162.524,131.7922 158.182,121.3572 C153.952,111.1982 149.656,112.5742 146.457,112.4122 C143.421,112.2612 139.943,112.2292 136.47,112.2292 C132.996,112.2292 127.35,113.5332 122.574,118.7492 C117.797,123.9672 104.335,136.5742 104.335,162.2232 C104.335,187.8732 123.008,212.6512 125.614,216.1292 C128.219,219.6082 162.359,272.2422 214.634,294.8152 C227.067,300.1842 236.774,303.3912 244.341,305.7912 C256.825,309.7592 268.185,309.1992 277.163,307.8572 C287.175,306.3612 307.994,295.2512 312.337,283.0792 C316.679,270.9052 316.679,260.4722 315.376,258.2992 C314.074,256.1252 310.6,254.8202 305.389,252.2112 M210.307,382.0362 L210.237,382.0362 C179.133,382.0242 148.625,373.6682 122.01,357.8742 L115.681,354.1172 L50.074,371.3272 L67.585,307.3612 L63.464,300.8032 C46.112,273.2042 36.948,241.3072 36.9609862,208.5532 C36.999,112.9792 114.761,35.2232 210.376,35.2232 C256.676,35.2392 300.199,53.2942 332.927,86.0592 C365.654,118.8232 383.667,162.3762 383.650012,208.6922 C383.611,304.2742 305.849,382.0362 210.307,382.0362 M357.835,61.1622 C318.46,21.7412 266.096,0.0222 210.305,0.0002 C95.352,0.0002 1.794,93.5512 1.748,208.5392 C1.733,245.2972 11.336,281.1752 29.587,312.8042 L0,420.8752 L110.558,391.8732 C141.02,408.4882 175.317,417.2462 210.222,417.2582 L210.307,417.2582 L210.308,417.2582 C325.249,417.2582 418.816,323.6972 418.862015,208.7062 C418.883,152.9812 397.21,100.5822 357.835,61.1622" id="Fill-1" fill="#FFFFFF" mask="url(#mask-2)"></path>
            </g>
        </g>
    </g>
</svg>